# xmcd
#
# Track frame offsets:
#	150
#	16612
#	30215
#	46541
#	60683
#	83906
#	98334
#	115330
#	140647
#	154725
#	173642
#	197232
#
# Disc length: 2799 seconds
#
# Revision: 0
# Processed by: cddbd v1.5.2PL0 Copyright (c) Steve Scherf et al.
# Submitted via: dBpowerAMP V4.0
#
DISCID=850aed0c
DTITLE=Delta Kings - Done Fell Out the Back
DYEAR=1996
DGENRE=Blues-Rock
TTITLE0=Showdown at the Sergio Leone Corral
TTITLE1=Dream On
TTITLE2=Feels So Right
TTITLE3=Save Your Love (George)
TTITLE4=Neverland
TTITLE5=Catfish
TTITLE6=Bad from the Good
TTITLE7=Nerve
TTITLE8=Born Again
TTITLE9=Empty Arms Motel
TTITLE10=Sensitive Kind
TTITLE11=Thirty Ways
EXTD=
EXTT0=
EXTT1=
EXTT2=
EXTT3=
EXTT4=
EXTT5=
EXTT6=
EXTT7=
EXTT8=
EXTT9=
EXTT10=
EXTT11=
PLAYORDER=
